{"title":"The.Assassin.Next.Door.2009.Rus-Eng.DVDRip.XviD.AC3.EngSub-Zen_B","uid":5772409,"size":1482425068,"categoryP":"video","categoryS":"movies","magnet":"?xt=urn:btih:bc799a1eab225ffa23a8b312255a6acc684ea020&amp;dn=The.Assassin.Next.Door.2009.Rus-Eng.DVDRip.XviD.AC3.EngSub-Zen_B&amp;tr=udp%3A%2F%2Ftracker.openbittorrent.com%3A80&amp;tr=udp%3A%2F%2Fopen.demonii.com%3A1337&amp;tr=udp%3A%2F%2Ftracker.coppersurfer.tk%3A6969&amp;tr=udp%3A%2F%2Fexodus.desync.com%3A6969","seeders":0,"leechers":0,"uploader":"Zen_Bud","files":-1,"time":1282147044,"description":"General\nComplete name                    : The.Assassin.Next.Door.2009.avi\nFormat                           : AVI\nFile size                        : 1.38 GiB\nDuration                         : 1h 49mn\nOverall bit rate                 : 1 808 Kbps\n\nVideo\n\nFormat                           : MPEG-4 Visual\nCodec ID/Hint                    : XviD\nDuration                         : 1h 49mn\nBit rate                         : 1 476 Kbps\nWidth                            : 720 pixels\nHeight                           : 366 pixels\nDisplay aspect ratio             : 2.35:1\nStream size                      : 1.13 GiB (82%)\nWriting library                  : XviD 1.1.2 (UTC 2006-11-01)\n\nAudio............................: Rus,Eng\n\nFormat                           : AC-3\nDuration                         : 1h 49mn\nBit rate                         : 320 Kbps\nChannel(s)                       : 6 channels\nChannel positions                : Front: L C R, Side: L R, LFE\nSampling rate                    : 48.0 KHz\nStream size                      : 250 MiB (18%)\n\nSub..............................: Eng\n","torrent":{"xt":"urn:btih:bc799a1eab225ffa23a8b312255a6acc684ea020","amp;dn":"The.Assassin.Next.Door.2009.Rus-Eng.DVDRip.XviD.AC3.EngSub-Zen_B","amp;tr":["udp%3A%2F%2Ftracker.openbittorrent.com%3A80","udp%3A%2F%2Fopen.demonii.com%3A1337","udp%3A%2F%2Ftracker.coppersurfer.tk%3A6969","udp%3A%2F%2Fexodus.desync.com%3A6969"],"infoHash":"bc799a1eab225ffa23a8b312255a6acc684ea020","infoHashBuffer":{"type":"Buffer","data":[188,121,154,30,171,34,95,250,35,168,179,18,37,90,106,204,104,78,160,32]},"announce":[],"urlList":[]}}